# xmcd
#
# Track frame offsets:
#	183
#	17995
#	32245
#	44583
#	57133
#	70233
#	81370
#	93183
#	105683
#	117408
#	132145
#	144633
#	158658
#	172833
#	187495
#	199758
#
# Disc length: 2805 seconds
#
# Revision: 0
# Processed by: cddbd v1.5.2PL0 Copyright (c) Steve Scherf et al.
# Submitted via: audiograbber 1.83.01
#
DISCID=e40af310
DTITLE=Michel Fischer - L'inaccessible Amour
DYEAR=1995
DGENRE=Chanson francaise
TTITLE0=Quand ca vous arrive
TTITLE1=L'amour a aimer
TTITLE2=Petite rue Sainte-Anne
TTITLE3=Ne plus savoir
TTITLE4=Liege
TTITLE5=Les prenoms
TTITLE6=Je dessine
TTITLE7=Il y a des odeurs d'encre
TTITLE8=Pour l'ile
TTITLE9=Vivre a deux
TTITLE10=Jeanne et Pierre se separent
TTITLE11=La maison morte
TTITLE12=Je suis le mois de mars
TTITLE13=Ma fille
TTITLE14=La nuit joue de la musique
TTITLE15=L'inaccessible Amour
EXTD=Chansons de 1965 à 1995
EXTT0=
EXTT1=
EXTT2=
EXTT3=
EXTT4=
EXTT5=
EXTT6=
EXTT7=
EXTT8=
EXTT9=
EXTT10=
EXTT11=
EXTT12=
EXTT13=
EXTT14=
EXTT15=
PLAYORDER=
